<?xml version="1.0" encoding="UTF-8"?>
<svg enable-background="new 0 0 2131.734 1735.463" version="1.1" viewBox="0 0 2131.734 1735.463" xml:space="preserve" xmlns="http://www.w3.org/2000/svg">
<style type="text/css">
	.st0{fill:#E8EDE8;stroke:#E8EDE8;}
	.st1{fill:#4DA853;stroke:#4DA853;}
	.st2{fill:#E0CC51;stroke:#E0CC51;}
	.st3{fill:#273A30;stroke:#273A30;}
</style>
	<path class="st0" d="m1374.4 68.695c54.105-3.652 110.91 2.425 158.89 29.555 36.258 17.815 65.608 46.869 90.316 78.317 11.643 18.512 23.626 37.139 31.498 57.623 11.418 37.536 19.85 76.753 16.092 116.23-3.363 30.247-8.777 60.979-22.59 88.435-4.915 11.494-13.99 21.604-15.977 34.111 5.069 16.82 12.474 33.726 23.744 47.356 4.282 6.554 11.349 1.591 15.959-1.66 40.425-30.707 85.105-56.605 133.84-71.642 29.29-11.973 61.514-8.785 92.291-7.345 44.244 6.215 85.206 29.785 115.63 62.139 12.016 12.802 24.475 26.868 27.442 44.842 3.801 22.026 5.632 44.44 7.013 66.762-0.797 78.384-18.753 155.86-46.696 228.86-27.611 75.14-63.917 146.82-104.29 215.82-18.114 36.647-43.585 68.835-65.261 103.32-35.546 50.133-72.231 99.446-109.17 148.51-2.697 4.419-7.331 8.982-5.85 14.645 3.998 20.203 17.071 36.694 26.643 54.444 7.917 14.838 16.377 29.318 24.259 44.152 14.68 29.528 34.786 56.372 45.682 87.693 7.129 23.802-4.332 53.442-28.235 62.761-21.368 8.115-47.182 5.389-65.101-9.339-21.002-16.757-43.114-33.726-70.124-39.057-14.225 11.194-25.45 27.286-42.93 33.622-15.621 2.912-33.526 2.831-47.328-6.005-24.427-19.717-45.312-47.976-77.444-54.956-17.902 5.464-33.431 18.803-46.045 32.407-2.699 27.275 22.244 49.084 21.027 76.442-1.845 25.322-23.486 45.879-46.985 52.584-25.463 3.433-45.409-15.748-65.877-27.496-9.754 9.028-17.978 19.709-28.661 27.658-21.115 11.986-51.06 11.825-68.546-6.58-10.245-9.128-13.246-24.049-23.432-32.813-21.279-2.609-41.935 9.115-63.363 4.888-19.3-1.681-33.501-16.859-43.1-32.444-6.465-9.783-3.363-22.112-1.298-32.726 8.029-31.998 31.274-57.326 41.667-88.346 4.473-14.714 0.891-30.1-1.17-44.866-2.255-12.693-3.458-25.821-8.724-37.761-12.31-5.481-26.287-2.359-39.282-1.921-26.856 2.935-53.825 3.688-80.816 2.66-45.898 2.567-91.398-6.617-137.24-6.674-8.607 20.371-11.817 42.462-13.615 64.343-1.93 20.975 7.422 40.439 11.35 60.633 4.537 22.937 7.653 46.156 13.096 68.96 4.434 18.73 4.682 39.911-6.155 56.586-8.274 11.634-20.451 22.095-35.197 23.447-18.618 1.605-40.136-1.354-52.193-17.182-7.147-6.386-12.029-17.993-22.528-18.729-10.801 8.041-18.824 20.489-32.505 24.075-19.578 7.739-41.481-0.566-56.667-13.595-12.706-11.29-14.13-30.773-26.741-41.696-21.66-4.079-44.91 2.906-65.677-6.498-17.703-8.906-32.723-26.854-32.617-47.458-0.465-11.398 3.142-22.668 9.294-32.156 15.295-24.032 35.885-44.154 51.468-67.936 13.965-22.247 3.791-48.925 5.328-73.22-0.29-19.73 4.906-41.78-5.138-59.733-17.774-15.314-39.357-25.568-57.67-40.276-17.405-12.352-31.268-29.619-51.25-38.212-5.038 30.282-12.051 60.17-16.979 90.431-2.563 15.349-6.947 31.034-3.247 46.613 10.192 46.587 16.197 93.954 21.783 141.27 2.332 20.168 7.961 40.117 6.881 60.56-0.571 17.842-14.984 30.506-28.404 40.132-21.493 16.061-51.997 5.521-69.561-11.437-9.822-8.825-13.482-27.776-29.303-26.916-24.668-1.122-45.981 12.687-66.875 23.777-20.548 10.601-48.901 14.127-67.236-2.645-10.872-8.674-15.793-21.921-22.025-33.807-4.317-10.184-17.522-7.817-26.434-8.172-27.878 0.352-50.361 20.268-77.624 23.329-21.653 3.386-46.414-5.923-55.772-26.739-9.636-23.091-7.223-53.423 11.913-71.065 14.724-14.828 30.077-29.006 45.491-43.106 16.332-15.724 30.862-33.207 47.482-48.681 11.826-11.892 25.633-22.037 35.491-35.78 7.531-10.271-0.422-22.875-3.68-33.279-23.076-53.705-40.29-109.61-59.894-164.62-25.058-75.499-44.552-152.81-60.559-230.71-8.746-27.562-9.642-56.469-12.324-85.035-4.915-30.841-3.343-62.099-5.423-93.147-0.861-59.543 6.531-119.13 20.937-176.87 5.795-23.965 17.359-46.056 30.384-66.788 12.536-19.408 33.82-30.483 54.625-38.919 19.88-7.594 39.79-17.103 61.485-17.746 40.634-1.71 82.672 5.077 118.27 25.58 12.647 7.301 25.144 14.939 38.696 20.437-3.208-21.097-17.141-38.373-21.391-59.106-5.98-26.392-9.567-53.438-9.882-80.493 1.78-57.677 23.1-114.99 61.803-158.11 29.67-37.518 73.201-61.643 118.52-75.019 31.075-12.314 65.241-10.691 97.908-7.908 41.543 3.702 81.274 19.934 115.63 43.194 8.248 5.283 17.779 11.653 28.018 8.019 31.972-9.036 63.936-18.571 96.518-25.148 27.26-3.595 54.608-7.036 82.078-8.649 52.781-0.8 105.73 0.448 157.93 8.888 24.958 2.19 47.841 13.677 72.613 16.767 15.003 2.484 26.013-9.974 36.933-18.107 35.559-30.476 80.703-47.749 126.19-56.553m-118.59 119.55c-6.757 6.709-11.876 15.902-20.782 19.955-13.923-0.924-26.718-6.787-39.845-10.879-114.12-29.706-236.35-30.341-349.91 2.478-17.946 3.859-34.706 11.246-51.636 18.008-7.96 3.321-16.022-0.907-21.145-7-26.449-27.831-61.501-48.691-99.939-53.881-22.217-3.333-44.863-6.934-67.222-2.749-45.285 5.844-87.706 28.796-117.56 63.27-23.036 28.981-42.118 63.193-44.752 100.82-9.358 50.49 3.477 105.06 36.026 144.97 2.352 3.855 6.842 7.663 5.377 12.736-3.599 11.769-11.693 21.435-17.507 32.174-13.239 22.126-21.634 46.684-33.772 69.377-15.833-11.298-26.667-28.072-42.452-39.471-33.118-28.22-74.292-50.964-119.02-49.526-31.205-0.037-61.863 11.797-86.878 29.826-22.752 37.619-32.163 81.561-38.091 124.67-3.65 23.03-2.368 46.405-4.61 69.544 0.856 22.539 1.104 45.107 1.675 67.645 3.853 40.552 7.886 81.092 15.029 121.21 9.945 61.058 28.826 120.06 44.342 179.8 27.154 83.586 55.808 166.83 90.723 247.53 2.775 7.783 9.278 17.82 1.283 24.761-22.319 24.202-47.518 45.62-69.558 70.142-25.279 27.059-55.885 49.351-77.009 80.068 34.166-8.685 69.02-24.427 104.91-15.155 19.431 3.724 35.766 17.219 44.244 34.901 3.586 5.328 6.298 16.942 15.03 12.582 16.34-7.156 31.228-17.413 48.264-23.059 23.781-9.477 50.324-9.396 74.692-2.305 13.681 6.438 24.03 17.818 35.788 27.068 0.588-17.698-3.063-35.048-5.747-52.453-5.418-42.494-13.011-84.661-18.719-127.12-3.699-32.57 8.929-63.839 11.82-95.959 11.144-47.773 18.734-97.494 41.209-141.58 16.795 11.563 28.314 28.816 43.534 42.133 23.993 20.337 48.692 39.876 75.7 56.084 20.699 15.509 45.611 23.914 66.854 38.497 4.966 2.589 4.168 8.565 4.737 13.295 1.579 40.546 0.915 81.126 2.1 121.69-1.003 17.325 2.319 35.024-1.844 52.053-16.3 30.516-43.642 53.686-59.046 84.706 26.339 2.793 52.742-4.395 78.943 1.153 7.725 19.683 14.619 39.758 23.841 58.85 17.858-17.378 33.155-37.251 51.489-54.177 24.336 16.258 37.612 43.972 61.145 61.229-1.303-18.757-7.55-36.652-10.306-55.168-3.95-25.031-9.506-49.734-14.301-74.552-2.98-14.528 0.815-29.222 2.514-43.65 5.941-37.916 8.926-76.351 17.827-113.78 49.608 7.077 99.21 14.474 149.15 18.928 40.504 1.259 81.125 2.995 121.55-0.981 26.432 0.387 52.306-6.263 78.698-5.561 6.93 41.513 14.367 82.95 22.745 124.26 2.313 11.954 5.721 25.079-0.435 36.557-13.456 28.284-30.743 54.834-41.145 84.538 24.015 0.115 46.59-9.943 70.459-10.914 10.242-1.43 13.752 9.504 17.937 16.543 6.161 12.445 13.933 23.959 22.81 34.618 5.197-3.958 10.112-8.485 13.14-14.39 8.455-15.557 17.835-30.568 27.967-45.058 26.034 14.093 46.313 36.516 71.934 51.338-14.441-38.918-27.565-78.413-44.813-116.23-6.092-13.539-8.45-28.484-7.524-43.26 1.216-23.732-1.194-47.464-0.442-71.184 1.945-28.331-2.889-56.745 0.044-85.021 10.326-11.834 26.837-15.592 40.543-22.445 49.773-19.845 89.536-56.502 132.01-87.943-2.597 35.392-6.826 70.754-12.711 105.73-21.703 60.04-55.373 115.25-75.35 175.97 16.322-5.062 31.479-16.599 49.283-14.611 14.482 1.279 29.333 3.281 42.247 10.439 24.365 13.24 46.832 30.219 64.612 51.612 11.779-8.734 21.783-19.721 33.897-28.021 14.125-9.572 31.834-4.895 47.482-3.004 33.45 4.447 58.768 28.33 86.601 45.034-16.928-32.801-33.094-66.003-52.589-97.354-17.007-31.069-33.361-62.517-50.447-93.526-6.839-12.141 4.195-23.956 11.635-32.675 39.116-45.803 73.65-95.248 109.34-143.73 38.222-53.275 71.903-109.69 104.07-166.79 32.619-60.069 62.252-122.08 83.02-187.32 22.693-65.566 37.511-135.44 31.507-205.1-1.534-15.836-3.567-33.051-14.486-45.535-21.965-24.806-51.133-44.702-84.504-49.494-46.867-8.221-93.282 10.098-133.28 33.004-44.435 23.69-82.339 57.491-118.33 92.176-2.227 3.804-7.294 2.837-8.639-1.103-12.039-25.992-18.075-54.453-31.537-79.88-11.678-25.2-27.73-48.149-38.651-73.714 16.289-24.581 33.75-49.154 42.741-77.545 9.258-38.843 13.454-80.074 1.483-118.85-10.359-34.415-31.747-64.586-56.206-90.458-30.582-26.084-67.53-47.968-108.41-51.301-14.817-1.713-29.654-4.389-44.603-4.235-52.556 3.781-105.14 25.578-140.26 65.741m146.39 1137.7c-2.341 14.168-6.955 30.819 2.643 43.348 11.297-20.561 22.893-41.511 27.637-64.757-11.403 4.125-27.436 7.482-30.28 21.409z"/>
	<path class="st1" d="m1255.8 188.24c35.126-40.163 87.708-61.96 140.27-65.739 14.949-0.154 29.786 2.522 44.603 4.235 40.879 3.333 77.827 25.217 108.41 51.301 24.46 25.871 45.847 56.042 56.206 90.458 11.971 38.78 7.775 80.011-1.483 118.85-8.991 28.391-26.452 52.965-42.741 77.545 10.92 25.565 26.973 48.515 38.651 73.714 13.462 25.427 19.498 53.888 31.537 79.88 1.346 3.94 6.412 4.906 8.639 1.103 35.991-34.685 73.896-68.486 118.33-92.176 39.998-22.906 86.413-41.224 133.28-33.004 33.37 4.792 62.538 24.688 84.504 49.494 10.919 12.484 12.952 29.699 14.486 45.535 6.004 69.655-8.814 139.53-31.507 205.1-20.767 65.243-50.401 127.26-83.02 187.32-32.17 57.105-65.852 113.52-104.07 166.79-35.69 48.48-70.224 97.925-109.34 143.73-7.44 8.719-18.474 20.534-11.635 32.675 17.086 31.009 33.44 62.457 50.447 93.526 19.495 31.351 35.661 64.553 52.589 97.354-27.833-16.704-53.151-40.588-86.601-45.034-15.648-1.89-33.357-6.568-47.482 3.004-12.114 8.3-22.118 19.287-33.897 28.021-17.78-21.393-40.246-38.372-64.612-51.612-12.914-7.158-27.766-9.16-42.247-10.439-17.804-1.988-32.961 9.55-49.283 14.611 19.977-60.722 53.647-115.93 75.35-175.97 5.885-34.973 10.114-70.335 12.711-105.73-42.473 31.441-82.235 68.097-132.01 87.943-13.707 6.853-30.218 10.611-40.543 22.445-2.933 28.276 1.901 56.69-0.044 85.021-0.752 23.72 1.657 47.452 0.442 71.184-0.926 14.776 1.432 29.722 7.524 43.26 17.248 37.818 30.371 77.314 44.813 116.23-25.621-14.822-45.9-37.245-71.934-51.338-10.131 14.49-19.512 29.501-27.967 45.058-3.029 5.905-7.943 10.432-13.14 14.39-8.877-10.659-16.649-22.173-22.81-34.618-4.185-7.039-7.695-17.973-17.937-16.543-23.869 0.97-46.444 11.028-70.459 10.914 10.402-29.704 27.689-56.255 41.145-84.538 6.157-11.478 2.749-24.603 0.435-36.557-8.378-41.307-15.815-82.744-22.745-124.26-26.392-0.702-52.265 5.949-78.698 5.561-40.426 3.976-81.047 2.24-121.55 0.981-49.943-4.454-99.545-11.851-149.15-18.928-8.9 37.432-11.886 75.867-17.827 113.78-1.699 14.428-5.494 29.122-2.514 43.65 4.795 24.819 10.351 49.521 14.301 74.552 2.756 18.516 9.003 36.411 10.306 55.168-23.533-17.257-36.809-44.971-61.145-61.229-18.334 16.926-33.631 36.799-51.489 54.177-9.223-19.092-16.116-39.167-23.841-58.85-26.2-5.548-52.604 1.64-78.943-1.153 15.405-31.021 42.746-54.191 59.046-84.706 4.164-17.028 0.842-34.728 1.844-52.053-1.185-40.567-0.521-81.147-2.1-121.69-0.569-4.729 0.229-10.706-4.737-13.295-21.244-14.583-46.155-22.988-66.854-38.497-27.008-16.208-51.707-35.747-75.7-56.084-15.22-13.317-26.739-30.57-43.534-42.133-22.475 44.088-30.065 93.808-41.209 141.58-2.891 32.12-15.519 63.389-11.82 95.959 5.707 42.459 13.3 84.626 18.719 127.12 2.684 17.405 6.335 34.755 5.747 52.453-11.758-9.25-22.107-20.63-35.788-27.068-24.368-7.091-50.911-7.173-74.692 2.305-17.036 5.646-31.924 15.903-48.264 23.059-8.732 4.36-11.444-7.254-15.03-12.582-8.478-17.682-24.813-31.177-44.244-34.901-35.891-9.273-70.745 6.469-104.91 15.155 21.124-30.717 51.731-53.009 77.009-80.068 22.04-24.522 47.238-45.94 69.558-70.142 7.995-6.942 1.491-16.978-1.283-24.761-34.915-80.702-63.57-163.95-90.723-247.53-15.516-59.743-34.397-118.74-44.342-179.8-7.143-40.119-11.176-80.659-15.029-121.21-0.572-22.538-0.82-45.106-1.675-67.645 2.242-23.139 0.96-46.514 4.61-69.544 5.928-43.107 15.339-87.05 38.091-124.67 25.015-18.029 55.673-29.863 86.878-29.826 44.723-1.437 85.897 21.306 119.02 49.526 15.785 11.399 26.619 28.173 42.452 39.471 12.138-22.693 20.533-47.251 33.772-69.377 5.814-10.739 13.908-20.406 17.507-32.174 1.465-5.074-3.025-8.882-5.377-12.736-32.549-39.913-45.385-94.479-36.026-144.97 2.634-37.627 21.716-71.84 44.752-100.82 29.851-34.473 72.271-57.425 117.56-63.27 22.359-4.185 45.005-0.584 67.222 2.749 38.438 5.19 73.49 26.05 99.939 53.881 5.123 6.092 13.186 10.32 21.145 7 16.93-6.761 33.69-14.149 51.636-18.008 113.56-32.819 235.8-32.184 349.91-2.478 13.127 4.092 25.922 9.955 39.845 10.879 8.904-4.055 14.023-13.248 20.78-19.957m-221 24.901c1.203 5.059 1.981 10.383 4.475 15.074 12.682 8.977 29.006 9.745 44.015 10.238 12.509-0.252 29.036-1.626 34.131-15.372-1.461-8.327-8.132-14.545-15.901-17.172-22.026-7.076-46.842-4.805-66.72 7.232m368.5 52.431c-12.314 2.623-23.048 10.139-32.123 18.579-18.4 17.167-22.49 46.432-12.323 68.986 11.163 23.108 36.861 38.437 62.506 37.196 31.38-3.282 58.399-32.287 55.522-64.611 2.088-38.087-37.817-66.32-73.582-60.15m-546.1-30.344c12.075 11.778 29.093 15.194 45.45 14.865 10.159 0.337 22.361-4.753 24.838-15.527-6.374-13.006-22.364-12.771-34.711-14.063-13.415-1.286-28.473 2.231-35.577 14.725m273.99 25.618c2.337 6.199 2.698 15.345 10.706 16.936 19.54 7.044 46.51 11.019 60.28-8.587-15.625-22.682-49.048-18.985-70.986-8.349m-158.27 5.715c-6.56 1.544-8.061 8.853-10.812 13.976 18.151 11.523 41.367 14.272 60.703 3.979-1.498-6.092-1.837-15.128-9.759-16.281-13.044-2.803-27.067-5.445-40.132-1.674m-319.01 20.178c-38.925 0.577-66.119 44.312-54.67 80.217 6.947 33.305 45.909 50.825 76.998 41.463 27.148-5.777 44.251-33.951 44.709-60.374 0.132-34.463-32.679-64.528-67.037-61.306m449.24 156.15c-23.175 1.663-18.917 42.943 4.245 39.429 16.697 2.024 22.697-17.969 18.335-30.86-4.226-7.826-14.615-8.867-22.58-8.569m-117.37 3.328c-9.051 2.4-15.516 11.563-15.107 20.893-0.532 12.8 14.488 22.679 26.177 17.986 13.152-5.289 16.686-24.352 8.58-35.198-5.189-4.751-13.109-4.802-19.65-3.681m556.28 144.43c-19.861 12.181-42.753 17.755-63.784 27.406-29.209 13.015-59.826 22.295-90.697 30.227-54.958 17.3-111.7 27.938-168.41 37.549-23.528 4.711-47.623 3.271-71.342 5.86-35.798 3.643-71.819 4.306-107.79 4.017-78.553 2.203-157.07-5.081-234.6-17.605-29.794-6.077-60.21-8.395-89.942-14.678-42.191-11.996-85.3-20.413-127.62-31.963-37.738-12.068-75.503-24.21-113.76-34.424 36.11 22.879 73.317 44.121 110.78 64.79 45.21 26.777 92.013 51.092 140.56 71.257 25.862 11.263 53.287 18.353 79.303 29.245 67.447 25.776 139.5 36.323 211.08 42.543 51.1 3.465 102.11-2.645 152.65-9.595 21.896-0.831 43.057-6.768 63.626-13.918 74.117-21.75 145.6-53.186 210.53-95.162 54.048-35.793 107.96-73.559 151.5-122.03-18.402 6.609-35.401 16.419-52.077 26.483z"/>
	<path class="st2" d="m1034.8 213.14c19.878-12.037 44.695-14.308 66.719-7.232 7.769 2.627 14.44 8.845 15.901 17.172-5.096 13.746-21.622 15.12-34.131 15.372-15.009-0.494-31.333-1.262-44.015-10.238-2.494-4.691-3.272-10.015-4.474-15.074z"/>
	<path class="st3" d="m1403.3 265.58c35.765-6.171 75.67 22.063 73.582 60.15 2.877 32.323-24.142 61.328-55.522 64.611-25.645 1.242-51.343-14.088-62.506-37.196-10.167-22.554-6.077-51.82 12.323-68.986 9.075-8.439 19.809-15.956 32.123-18.579z"/>
	<path class="st2" d="m857.24 235.23c7.104-12.494 22.162-16.011 35.577-14.726 12.347 1.291 28.337 1.057 34.711 14.063-2.477 10.774-14.679 15.864-24.838 15.527-16.357 0.33-33.375-3.086-45.45-14.864z"/>
	<path class="st2" d="m1131.2 260.85c21.939-10.637 55.362-14.333 70.986 8.349-13.77 19.606-40.74 15.631-60.28 8.587-8.008-1.591-8.37-10.737-10.706-16.936z"/>
	<path class="st2" d="m972.96 266.56c13.065-3.771 27.088-1.128 40.131 1.674 7.922 1.153 8.261 10.19 9.759 16.281-19.336 10.293-42.552 7.544-60.703-3.979 2.752-5.123 4.253-12.432 10.813-13.976z"/>
	<path class="st3" d="m653.96 286.74c34.358-3.222 67.169 26.843 67.036 61.306-0.458 26.423-17.561 54.597-44.709 60.374-31.089 9.362-70.051-8.158-76.998-41.463-11.448-35.905 15.746-79.64 54.671-80.217z"/>
	<path class="st3" d="m1103.2 442.89c7.965-0.299 18.354 0.743 22.58 8.569 4.362 12.891-1.637 32.884-18.335 30.86-23.162 3.514-27.42-37.765-4.245-39.429z"/>
	<path class="st3" d="m985.83 446.22c6.541-1.12 14.461-1.069 19.649 3.681 8.107 10.845 4.572 29.909-8.58 35.198-11.689 4.693-26.709-5.186-26.177-17.986-0.408-9.331 6.057-18.494 15.108-20.893z"/>
	<path class="st3" d="m1542.1 590.65c16.676-10.064 33.675-19.874 52.078-26.483-43.545 48.473-97.454 86.239-151.5 122.03-64.932 41.975-136.41 73.411-210.53 95.162-20.569 7.15-41.731 13.087-63.626 13.918-50.545 6.95-101.55 13.06-152.65 9.595-71.578-6.22-143.64-16.767-211.08-42.543-26.016-10.892-53.441-17.982-79.303-29.245-48.542-20.165-95.345-44.479-140.56-71.257-37.458-20.67-74.665-41.911-110.78-64.79 38.259 10.215 76.023 22.357 113.76 34.424 42.319 11.55 85.428 19.967 127.62 31.963 29.732 6.283 60.148 8.6 89.942 14.678 77.527 12.525 156.04 19.808 234.6 17.605 35.971 0.29 71.993-0.374 107.79-4.017 23.72-2.589 47.814-1.149 71.342-5.86 56.714-9.611 113.45-20.249 168.41-37.549 30.871-7.933 61.487-17.213 90.697-30.227 21.03-9.651 43.922-15.225 63.783-27.406z"/>
</svg>
