<?xml version="1.0" encoding="iso-8859-1"?>
<!-- Generator: Adobe Illustrator 19.0.0, SVG Export Plug-In . SVG Version: 6.00 Build 0)  -->
<svg version="1.1" id="Layer_1" xmlns="http://www.w3.org/2000/svg" xmlns:xlink="http://www.w3.org/1999/xlink" x="0px" y="0px"
	 viewBox="0 0 511.999 511.999" style="enable-background:new 0 0 511.999 511.999;" xml:space="preserve">
<path style="fill:#6A8092;" d="M503.493,234.996h-19.278v-36.248h19.278c2.205,0,3.993,1.788,3.993,3.993v28.262
	C507.486,233.208,505.698,234.996,503.493,234.996z"/>
<g>
	<path style="fill:#BDCFDF;" d="M300.521,234.996h-19.278c-2.205,0-3.993-1.788-3.993-3.993v-28.262
		c0-2.205,1.788-3.993,3.993-3.993h19.278V234.996z"/>
	<path style="fill:#BDCFDF;" d="M300.521,277.898h-19.278c-2.205,0-3.993-1.788-3.993-3.993v-28.262
		c0-2.205,1.788-3.993,3.993-3.993h19.278V277.898z"/>
</g>
<g>
	<path style="fill:#CFDBE6;" d="M91.01,346.417c8.561,0,15.501-6.94,15.501-15.501v-6.717c0-8.561-6.94-15.501-15.501-15.501
		s-15.501,6.94-15.501,15.501v6.717C75.509,339.477,82.449,346.417,91.01,346.417z"/>
	<path style="fill:#CFDBE6;" d="M91.01,409.57c8.561,0,15.501-6.94,15.501-15.501v-14.155c0-8.561-6.94-15.501-15.501-15.501
		s-15.501,6.94-15.501,15.501v14.155C75.509,402.63,82.449,409.57,91.01,409.57z"/>
	<path style="fill:#CFDBE6;" d="M104.805,435.99c-2.571-5.002-7.784-8.423-13.795-8.423c-8.561,0-15.501,6.94-15.501,15.501v6.717
		c0,8.561,6.94,15.501,15.501,15.501h6.717c8.561,0,15.501-6.94,15.501-15.501C113.228,443.773,109.807,438.561,104.805,435.99z"/>
	<path style="fill:#CFDBE6;" d="M154.3,434.284h-12.681c-8.561,0-15.501,6.94-15.501,15.501c0,8.561,6.94,15.501,15.501,15.501
		H154.3c8.561,0,15.501-6.94,15.501-15.501C169.801,441.224,162.861,434.284,154.3,434.284z"/>
	<path style="fill:#CFDBE6;" d="M210.872,434.284h-12.68c-8.561,0-15.501,6.94-15.501,15.501c0,8.561,6.94,15.501,15.501,15.501
		h12.68c8.561,0,15.501-6.94,15.501-15.501C226.373,441.224,219.434,434.284,210.872,434.284z"/>
	<path style="fill:#CFDBE6;" d="M261.482,434.284h-6.717c-8.561,0-15.501,6.94-15.501,15.501c0,8.561,6.94,15.501,15.501,15.501
		h6.717c8.561,0,15.501-6.94,15.501-15.501C276.983,441.224,270.043,434.284,261.482,434.284z"/>
	<path style="fill:#CFDBE6;" d="M457.596,122.448H329.35c-24.161,0-43.818,19.656-43.818,43.818v301.917
		c0,24.161,19.656,43.816,43.818,43.816h128.247c24.161,0,43.816-19.656,43.816-43.816V166.265
		C501.414,142.104,481.757,122.448,457.596,122.448z"/>
</g>
<path style="fill:#EFF4F4;" d="M393.473,122.448H329.35c-24.161,0-43.818,19.656-43.818,43.818v301.917
	c0,24.161,19.656,43.816,43.818,43.816h64.123V122.448z"/>
<path style="fill:#232575;" d="M285.531,468.183c0,24.161,19.656,43.816,43.818,43.816h128.247
	c24.161,0,43.816-19.656,43.816-43.816v-14.284H285.531V468.183z"/>
<path style="fill:#365E94;" d="M285.531,468.183c0,24.161,19.656,43.816,43.818,43.816h64.123v-58.1h-107.94V468.183z"/>
<path style="fill:#232575;" d="M501.414,166.265c0-24.161-19.656-43.818-43.816-43.818H329.35
	c-24.161,0-43.818,19.656-43.818,43.818v19.833h215.881L501.414,166.265L501.414,166.265z"/>
<path style="fill:#365E94;" d="M393.472,122.448h-64.123c-24.161,0-43.818,19.656-43.818,43.818v19.833h107.94V122.448z"/>
<path style="fill:#BDCFDF;" d="M405.101,468.386h-23.256c-5.706,0-10.334,4.628-10.334,10.334s4.628,10.334,10.334,10.334h23.256
	c5.706,0,10.334-4.628,10.334-10.334S410.807,468.386,405.101,468.386z"/>
<path style="fill:#CFDBE6;" d="M132.089,15.306l-0.219-0.158C117.962,5.135,101.654,0.087,85.328,0.001
	C68.646-0.087,51.944,5.006,37.76,15.275l0,0c-27.899,20.201-39.828,55.93-29.66,88.84l1.683,5.448
	c6.699,21.681,14.924,42.841,24.024,63.63c4.914,11.226,7.604,23.643,7.604,36.654v17.87c0,12.896,10.454,23.349,23.349,23.349
	h40.555c12.896,0,23.349-10.454,23.349-23.349v-17.87c0-13.01,2.69-25.428,7.604-36.654c9.099-20.788,17.325-41.948,24.024-63.63
	l1.635-5.29C172.117,71.287,160.108,35.477,132.089,15.306z"/>
<path style="fill:#EFF4F4;" d="M85.328,0.001C68.646-0.087,51.944,5.006,37.76,15.275l0,0c-27.899,20.201-39.828,55.93-29.66,88.84
	l1.683,5.448c6.699,21.681,14.924,42.841,24.024,63.63c4.914,11.226,7.604,23.643,7.604,36.654v17.87
	c0,12.896,10.454,23.349,23.349,23.349h20.253L85.328,0.001z"/>
<path style="fill:#BDCFDF;" d="M85.328,227.165c-7.082,0-12.824,5.742-12.824,12.824v9.506c0,7.082,5.742,12.824,12.824,12.824
	s12.824-5.742,12.824-12.824v-9.506C98.152,232.907,92.41,227.165,85.328,227.165z"/>
<path style="fill:#FFDB58;" d="M85.328,225.33c-5.706,0-10.334-4.628-10.334-10.334v-77.262c0-5.706,4.628-10.334,10.334-10.334
	s10.334,4.628,10.334,10.334v77.262C95.662,220.703,91.035,225.33,85.328,225.33z"/>
<path style="fill:#6A8092;" d="M64.76,251.065h40.555c10.951,0,20.12-7.545,22.643-17.716H42.116
	C44.639,243.52,53.809,251.065,64.76,251.065z"/>
<path style="fill:#BDCFDF;" d="M41.41,214.995v12.719c0,1.361,0.123,2.693,0.346,3.99c0.096,0.557,0.225,1.102,0.36,1.643h85.842
	c0.134-0.543,0.264-1.087,0.36-1.643c0.223-1.297,0.346-2.628,0.346-3.988v-12.721H41.41z"/>
<path style="fill:#FFBD52;" d="M95.046,142.829H75.61c-5.706,0-10.334-4.628-10.334-10.334c0-5.706,4.628-10.334,10.334-10.334
	h19.437c5.706,0,10.334,4.628,10.334,10.334C105.382,138.202,100.754,142.829,95.046,142.829z"/>
<g>
</g>
<g>
</g>
<g>
</g>
<g>
</g>
<g>
</g>
<g>
</g>
<g>
</g>
<g>
</g>
<g>
</g>
<g>
</g>
<g>
</g>
<g>
</g>
<g>
</g>
<g>
</g>
<g>
</g>
</svg>
