<?xml version="1.0" encoding="UTF-8"?>
<svg viewBox="0 0 542.40997 330.48001" xmlns="http://www.w3.org/2000/svg" xmlns:xlink="http://www.w3.org/1999/xlink">
 <defs>
  <clipPath id="d">
   <path transform="matrix(1,0,-.24996,.96826,0,0)" d="m451.88 390.35h65.789c9.5597 0 17.256 7.6961 17.256 17.256v108.84c0 9.5597-7.6961 17.256-17.256 17.256h-65.789c-9.5597 0-17.256-7.6961-17.256-17.256v-108.84c0-9.5597 7.6961-17.256 17.256-17.256z"/>
  </clipPath>
  <filter id="a" x="-.5" y="-.5" width="2" height="2">
   <feGaussianBlur stdDeviation="5"/>
  </filter>
 </defs>
 <g transform="translate(-63.337 -238.83)">
  <g transform="translate(2,-3)">
   <use transform="matrix(.35457 -.84535 .91315 .32703 37.537 480.95)" width="548.1604" height="328.47562" xlink:href="#b"/>
   <g id="b" transform="matrix(.45984 0 0 .45984 80.61 147.08)">
    <g transform="translate(1,-1)">
     <path d="m296.85 318.02h94.524c13.735 0 22.029 10.707 18.596 24.006l-39.091 151.42c-3.4333 13.299-17.255 24.006-30.99 24.006h-94.524c-13.735 0-22.029-10.707-18.596-24.006l39.091-151.42c3.4333-13.299 17.255-24.006 30.99-24.006z" fill="#e5ff80" stroke="#000" stroke-width="2.5376"/>
     <g id="c" transform="matrix(.68054 0 -.18235 .68054 518.75 80.07)">
      <path transform="matrix(.29315 0 0 .29315 -133.54 300.49)" d="m-195.71 498.79c0 10.651-8.6345 19.286-19.286 19.286s-19.286-8.6345-19.286-19.286 8.6345-19.286 19.286-19.286 19.286 8.6345 19.286 19.286z" stroke="#000" stroke-width="2"/>
      <path d="m-218.87 416.64c14.867-6.8617 21.729-1.1436 21.729-1.1436s4.2142 15.8 16.011 10.293 11.436-13.723 11.436-13.723-5.7181 9.149 13.723 14.867 14.867-20.585 19.442 3.4309c4.3906 23.051 28.591-32.021 24.016-11.436s16.011 6.8617 16.011 6.8617" fill="none" stroke="#000" stroke-width="2.4016"/>
      <path transform="matrix(.29315 0 0 .29315 -133.54 323.08)" d="m-195.71 498.79c0 10.651-8.6345 19.286-19.286 19.286s-19.286-8.6345-19.286-19.286 8.6345-19.286 19.286-19.286 19.286 8.6345 19.286 19.286z" stroke="#000" stroke-width="2"/>
      <path transform="matrix(.29315 0 0 .29315 -133.54 345.67)" d="m-195.71 498.79c0 10.651-8.6345 19.286-19.286 19.286s-19.286-8.6345-19.286-19.286 8.6345-19.286 19.286-19.286 19.286 8.6345 19.286 19.286z" stroke="#000" stroke-width="2"/>
      <path d="m-183.02 445.78c8.1552-4.0238 11.919-0.67064 11.919-0.67064s2.3117 9.2657 8.7825 6.0358 6.2732-8.0477 6.2732-8.0477-3.1366 5.3651 7.5278 8.7183 8.1551-12.072 10.664 2.0119c2.4084 13.517 15.683-18.778 13.174-6.7064s8.7825 4.0238 8.7825 4.0238" fill="none" stroke="#000" stroke-width=".45403"/>
      <path d="m-186.11 465.78c7.4628-4.0294 10.907-0.67156 10.907-0.67156s2.1154 9.2784 8.0369 6.0441 5.7406-8.0588 5.7406-8.0588-2.8703 5.3725 6.8887 8.7304 7.4628-12.088 9.759 2.0147c2.204 13.536 14.352-18.804 12.055-6.7156s8.0369 4.0294 8.0369 4.0294" fill="none" stroke="#000" stroke-width=".43463"/>
      <path d="m-116.69 490.95c-8.1552-4.0238-11.919-0.67064-11.919-0.67064s-2.3117 9.2657-8.7825 6.0358-6.2732-8.0477-6.2732-8.0477 3.1366 5.3651-7.5278 8.7184-8.1551-12.072-10.664 2.0119c-2.4084 13.517-15.683-18.778-13.174-6.7064s-8.7825 4.0238-8.7825 4.0238" fill="none" stroke="#000" stroke-width=".45403"/>
     </g>
     <use transform="translate(-21.213 72.731)" width="187.28812" height="201.97052" xlink:href="#c"/>
     <g transform="matrix(1 0 -.26795 1 -218.19 -53.538)" font-family="Tuffy" font-size="20" font-weight="bold">
      <path d="m629.37 398.61h0.96008c1.8266 0 2.8131-0.6132 2.9596-1.8396 0.0134-0.12003 0.0201-0.24678 0.0201-0.38025 0-0.95987-0.75989-1.4931-2.2797-1.5997-0.21363-0.0134-0.44698-0.0201-0.70007-0.0202h-0.96008zm4.5801 8.0402-3.7604-5.6598h-0.8197v5.6598h-2.6202v-14.22h3.5803c2.36 1e-5 4.02 0.59999 4.9799 1.7999 0.48013 0.60019 0.7202 1.3202 0.72021 2.16-1e-5 1.4665-0.64678 2.6064-1.9403 3.4198-0.43986 0.29338-0.94646 0.51351-1.5198 0.6604l4.3597 6.1798z"/>
      <path d="m642.33 391.53h2.68l1.64-2.4799h-2.6202zm-3.8025 0.9021h10.08v2.3401h-7.4597v3.4198h7.0398v2.3401h-7.0398v3.7799h7.4597v2.3401h-10.08z"/>
      <path d="m649.51294,403.09116 2.42004-.79956c.46672.99975.93343,1.63961 1.40015,1.91955 .37312.24007.83312.36011 1.38.36011 1.13322,0 1.84651-.41321 2.1399-1.23963 .0797-.22704.11962-.46711.11963-.72021-1e-005-.90657-.64658-1.62658-1.9397-2.16003-.29338-.12003-.61341-.22664-.96008-.31983-2.41334-.62662-3.81328-1.71345-4.19983-3.2605-.0667-.27993-.1001-.5666-.1001-.85998 0-1.51977.69336-2.63305 2.08008-3.33985 .78653-.38654 1.6866-.57982 2.70019-.57983 2.1997,1e-005 3.74633.90659 4.6399,2.71973l-2.57996.76049c-.39999-.70677-1.02682-1.08682-1.88049-1.14013h-.21973c-1.3733,1e-005-2.05994.52654-2.05994,1.57959 0,.8134.7666,1.4734 2.29981,1.97998 .1066.0269.26671.0737.48034.14038 1.86645.64006 3.1197,1.41338 3.75977,2.31995 .43985.62663.65978,1.34664.65979,2.16003-1e-005,1.46647-.6065,2.61312-1.81946,3.43994-.88013.58675-1.92017.88013-3.12012.88013-2.42676,0-4.16015-1.28011-5.20019-3.84033z"/>
      <path d="m669.49 392.43h2.68v7.4402c-1e-5 2.9199-0.78004 4.9599-2.3401 6.12-0.82683 0.62662-1.8268 0.93994-2.9999 0.93994-2.0671 0-3.5606-0.92-4.4806-2.76-0.57332-1.1466-0.85998-2.58-0.85998-4.2999v-7.4402h2.68v7.4402c0 2.3466 0.55338 3.8265 1.6602 4.4397 0.3068 0.17334 0.64025 0.26001 1.0004 0.26001 1.0266 0 1.7733-0.61991 2.24-1.8597 0.27994-0.76009 0.41992-1.7067 0.41993-2.84z"/>
      <path d="m674.22 406.65v-14.22h3.5199l3.3996 10.08 3.5004-10.08h3.4998v14.22h-2.5598v-9.7601l-3.1 9.7803h-2.6404l-3.0597-9.66v9.6399z"/>
      <path d="m693.61 391.53h2.6801l1.64-2.4799h-2.6202zm-3.8025 0.9021h10.08v2.3401h-7.4597v3.4198h7.0398v2.3401h-7.0398v3.7799h7.4597v2.3401h-10.08z"/>
     </g>
     <g transform="matrix(1.4368 0 0 1.4368 -212.21 -225.02)" clip-path="url(#d)">
      <path transform="matrix(1,0,-.24996,.96826,0,0)" d="m517.67 390.35c9.5597 0 17.256 7.6961 17.256 17.256v108.84" fill="none" filter="url(#a)" stroke="#fff" stroke-width="10"/>
      <path transform="matrix(1,0,-.24996,.96826,0,0)" d="m451.88 390.35h65.789" fill="none" filter="url(#a)" stroke="#c0c0c0" stroke-width="10"/>
      <path transform="matrix(1,0,-.24996,.96826,0,0)" d="m534.93 516.45c0 9.5597-7.6961 17.256-17.256 17.256m-83.045-126.1c0-9.5597 7.6961-17.256 17.256-17.256" fill="none" filter="url(#a)" stroke="#808080" stroke-width="10"/>
      <path transform="matrix(1,0,-.24996,.96826,0,0)" d="m517.67 533.71h-65.789" fill="none" filter="url(#a)" stroke="#404040" stroke-width="10"/>
      <path transform="matrix(1,0,-.24996,.96826,0,0)" d="m451.88 533.71c-9.5597 0-17.256-7.6961-17.256-17.256v-108.84" fill="none" filter="url(#a)" stroke="#000" stroke-width="10"/>
     </g>
    </g>
   </g>
   <g transform="matrix(.66069 0 0 .66069 -2.4444 43.779)" stroke="#000">
    <path d="m127.14 550.93h40v234.29h-40z" stroke-width="2"/>
    <path d="m231.04 701.98h40.773v86.487h-40.773z" stroke-width="1.2268"/>
    <path d="m165.71 658.08h105.71v44.286h-105.71z" stroke-width="2"/>
   </g>
   <g transform="matrix(.66069 0 0 .66069 -16.602 49.443)" stroke="#000">
    <path d="m282.86 320.93c-67.086-77.969-220.72 24.994-140 105.71 39.172 39.172 194.37 71.602 151.43-14.286-8.4887 6.791-56.311-14.702-51.429-17.143 20.312-10.156 103.97-38.256 108.57-42.857 14.907-14.907-69.608-1.2347-68.571-31.429z"/>
    <path transform="translate(-11.429 2.8571)" d="m288.57 330.93c0 8.6788-10.873 15.714-24.286 15.714s-24.286-7.0355-24.286-15.714 10.873-15.714 24.286-15.714 24.286 7.0355 24.286 15.714z" fill="#fff" stroke-width="2"/>
    <path d="m270 334.51c0 3.5504-3.8376 6.4286-8.5714 6.4286s-8.5714-2.8782-8.5714-6.4286 3.8376-6.4286 8.5714-6.4286 8.5714 2.8782 8.5714 6.4286z" stroke-width="2"/>
   </g>
   <path d="m146.87 361.35c4.6187 16.095 23.618 23.211 34.62 34.025 34.287 33.697 50.129-30.038 64.633-15.783 17.102 16.808-41.9 48.594-83.678 22.515-13.892-8.6721-29.895-31.004-15.576-40.757z" stroke="#000" stroke-width=".66069"/>
   <path d="m122.14 459.69c-4.5668 39.428 59.002-2.3479 77.395 16.045 15.177 15.177-11.925 71.133 4.7192 87.777 6.9495 6.9495 62.157 11.052 53.799-5.663-6.0493-12.099-33.678-1.2881-38.698-11.326-11.034-22.067 14.611-56.667 2.8315-80.227-11.498-22.996-78.071-27.397-100.05-6.6069z" stroke="#000" stroke-width=".66069"/>
   <path d="m142.73 363.86c11.845-6.0913 28.167-2.54 39.861-7.71 13.379-5.9149 18.704 7.6927 12.456 13.217-8.1436 7.2007-68.905 4.2713-52.317-5.5071" stroke="#000" stroke-width=".81992"/>
   <path d="m123.06 352.05c-28.503 28.223-4.5801 149.44 32.272 113.97 33.917-32.636 6.756-117.94-32.272-113.97z" stroke="#000" stroke-width=".57746"/>
   <g transform="matrix(-.66069 0 0 .66069 686.09 44.723)" stroke="#000">
    <path d="m127.14 550.93h40v234.29h-40z" stroke-width="2"/>
    <path d="m231.04 701.98h40.773v86.487h-40.773z" stroke-width="1.2268"/>
    <path d="m165.71 658.08h105.71v44.286h-105.71z" stroke-width="2"/>
   </g>
   <g transform="matrix(.66069 0 0 .52483 -33.591 161.12)" stroke="#000">
    <path d="m516.17 642.11h40.514v127.66h-40.514z" stroke-width="1.4858"/>
    <path d="m620.33 686.26h40.773v86.487h-40.773z" stroke-width="1.2268"/>
    <path d="m555 642.36h105.71v44.286h-105.71z" stroke-width="2"/>
   </g>
   <g transform="matrix(.66069 0 0 .66069 -19.434 58.881)" stroke="#000">
    <path d="m804.21 323.07c67.086-77.969 185.01 27.851 104.29 108.57-39.172 39.172-152.94 35.888-112.86-17.143 8.4887 6.791 53.454-14.702 48.571-17.143-20.312-10.156-72.541-15.399-77.143-20-14.907-14.907 38.179-24.092 37.143-54.286z"/>
    <g transform="matrix(-1 0 0 1 1089.9 6.4259)" stroke-width="2">
     <path transform="translate(-11.429 2.8571)" d="m288.57 330.93c0 8.6788-10.873 15.714-24.286 15.714s-24.286-7.0355-24.286-15.714 10.873-15.714 24.286-15.714 24.286 7.0355 24.286 15.714z" fill="#fff"/>
     <path d="m270 334.51c0 3.5504-3.8376 6.4286-8.5714 6.4286s-8.5714-2.8782-8.5714-6.4286 3.8376-6.4286 8.5714-6.4286 8.5714 2.8782 8.5714 6.4286z"/>
    </g>
   </g>
   <path d="m528.01 369.55c2.4685 16.562-11.872 30.913-17.402 45.315-17.234 44.878-58.071-6.5562-65.361 12.428-8.5964 22.385 58.274 26.854 85.483-14.196 9.0478-13.65 14.354-40.607-2.7193-43.547z" stroke="#000" stroke-width=".66069"/>
   <path d="m562.87 461.1c4.5668 39.428-59.002-2.3479-77.395 16.045-15.177 15.177 11.925 71.133-4.7192 87.777-6.9495 6.9495-62.157 11.052-53.799-5.6631 6.0493-12.099 33.678-1.2881 38.698-11.326 11.034-22.067-14.611-56.667-2.8315-80.227 11.498-22.996 78.071-27.397 100.05-6.6069z" stroke="#000" stroke-width=".66069"/>
   <path d="m535.45 365.29c-17.992 6.0529-35.647 23.823-52.905 30.465-19.745 7.5985-18.068 23.225-7.1967 21.857 14.17-1.7827 86.043-59.813 60.102-52.321" stroke="#000" stroke-width="1.0057"/>
   <path d="m561.96 353.47c28.503 28.223 4.5801 149.44-32.272 113.97-33.917-32.636-6.756-117.94 32.272-113.97z" stroke="#000" stroke-width=".57746"/>
  </g>
 </g>
</svg>
